M48
; DRILL file {KiCad (5.1.6)-1} date 09/22/21 15:39:06
; FORMAT={-:-/ absolute / inch / decimal}
; #@! TF.CreationDate,2021-09-22T15:39:06+02:00
; #@! TF.GenerationSoftware,Kicad,Pcbnew,(5.1.6)-1
; #@! TF.FileFunction,Plated,1,2,PTH
FMAT,2
INCH
T1C0.0276
T2C0.0320
%
G90
G05
T1
X2.5Y-1.1
X2.5Y-1.45
X2.65Y-0.9
X2.65Y-1.65
X2.95Y-0.9
X2.95Y-2.0
X3.05Y-0.9
X3.05Y-2.0
X3.15Y-0.9
X3.25Y-0.9
X3.35Y-0.9
X3.45Y-0.9
X3.55Y-0.9
X3.65Y-0.9
X3.75Y-0.9
X3.85Y-0.9
X3.95Y-0.9
X4.05Y-0.9
X4.15Y-0.9
X4.25Y-0.9
X4.35Y-0.9
X4.45Y-0.9
X4.55Y-0.9
X4.65Y-0.9
X4.75Y-0.9
X4.75Y-2.0
X4.85Y-0.9
X4.85Y-2.0
T2
X2.25Y-1.15
X2.25Y-1.25
X2.25Y-1.35
X2.25Y-1.45
X2.25Y-1.55
X2.25Y-1.65
X2.4Y-0.85
X2.4Y-1.25
X2.25Y-2.0
X2.65Y-2.0
T0
M30
